<svg width="215" height="41" viewBox="0 0 215 41" fill="none" xmlns="http://www.w3.org/2000/svg">
<g clip-path="url(#clip0_1_2)">
<path d="M7.47456 31.576V27.256H3.10656V0.711998H7.95456V26.776H20.5306V22.408H25.4266V27.256H21.0106V31.576H7.47456ZM64.4277 31.576V27.256H60.0597V13.768H64.4277V9.4H77.9637V13.768H82.3797V27.256H77.9637V31.576H64.4277ZM64.9077 26.776H77.4837V14.2H64.9077V26.776ZM96.8727 31.576V27.256H92.5527V14.2H88.1847V9.4H92.5527V0.711998H97.3527V9.4H110.505V14.2H97.3527V26.776H110.025V22.408H114.873V27.256H110.505V31.576H96.8727ZM123.584 31.576V27.256H119.216V13.768H123.584V9.4H137.12V13.768H141.536V27.256H137.12V31.576H123.584ZM124.064 26.776H136.64V14.2H124.064V26.776ZM147.341 40.024V13.768H151.709V9.4H165.245V13.768H169.661V27.256H165.245V31.576H152.189V40.024H147.341ZM152.189 26.776H164.765V14.2H152.189V26.776ZM175.466 31.576V9.4H180.314V31.576H175.466ZM175.466 5.56V0.711998H180.314V5.56H175.466ZM189.537 31.576V27.256H185.169V13.768H189.537V9.4H203.073V13.768H207.489V26.776H211.857V31.576H207.009V27.256H203.073V31.576H189.537ZM190.017 26.776H202.593V14.2H190.017V26.776Z" fill="black"/>
<path d="M50.8184 14H55V27H50.8184V32H36.1816V27H32V14H36.1816V9H50.8184V14Z" fill="#C79103"/>
<rect x="36.1818" y="27" width="14.6364" height="5" fill="#FDC700"/>
<rect x="36.1818" y="9" width="14.6364" height="5" fill="#FDC700"/>
<rect x="32" y="14" width="5.22727" height="13" fill="#FDC700"/>
<rect x="50.8182" y="14" width="4.18182" height="13" fill="#FDC700"/>
<rect x="42" y="16" width="4" height="9" fill="#FDC700"/>
</g>
<defs>
<clipPath id="clip0_1_2">
<rect width="215" height="41" fill="white"/>
</clipPath>
</defs>
</svg>
